<?xml version="1.0" encoding="UTF-8"?>
<svg id="Layer_1" xmlns="http://www.w3.org/2000/svg" version="1.1" viewBox="0 0 1652 711">
  <!-- Generator: Adobe Illustrator 29.8.1, SVG Export Plug-In . SVG Version: 2.1.1 Build 2)  -->
  <path d="M276,548h507.5c6.2,0,14.6,9.4,15.4,15.6.9,7,1,27.8,0,34.8s-7.7,13.8-14.4,14.6c-22.7-2.2-50.9,2.9-72.9-.1s-12.7-9.5-18.6-14.4l-6-4.5c20.4,40.5,1.5,92-42.5,106-59.8,19-114.8-38.3-93.3-97.3,2.2-6,6.2-11,8.8-16.7-9.5,7-19.4,26.6-31.5,28-31.3,3.5-69-2.6-101,0-59.5-1.6-125.8,5.6-184.9,1s-7.9-.9-10.3-1.7c-9.6-2.9-10.5-16-14-24-29.7-69.3-128.5-69.4-160.4-2-4.9,10.4-4.8,25-19.3,26.7s-21.9-1.2-24.5-13.5l.5-143.6c1.1-5.2,3-9.9,5.4-14.6,20.4-41.1,51.1-82.9,74.2-122.8,13.1-14.7,28.7-22.3,48.4-23.6,38.4-2.4,79.3,1.8,118,.1,6.2.3,15.6,8.3,15.6,14.4v237.5ZM231,338h-91.5c-3.7,0-11.8,6.8-13.7,10.3l-54.8,92.7h160v-103ZM617.8,597.3c-44.8,4.3-32.3,74.5,11.4,62.4,36.4-10,26.8-66.1-11.4-62.4Z"/>
  <path d="M1375,310.5c1.1-7.1,8.5-13.5,15.6-14.4,38.6,1.7,79.6-2.5,118-.1,19.8,1.2,35.4,8.9,48.4,23.6,23.1,39.9,53.8,81.7,74.2,122.8,2.4,4.7,4.3,9.4,5.4,14.6l.5,143.6c-2.6,12.3-13.3,14.8-24.5,13.5-14.5-1.7-14.4-16.3-19.3-26.7-31.9-67.4-130.7-67.3-160.4,2-3.4,8-4.4,21.1-14,24-2.5.7-7.7,1.4-10.3,1.7-59.2,4.6-125.5-2.6-184.9-1-32-2.6-69.7,3.6-101,0-12.1-1.4-21.9-21-31.5-28,2.5,5.7,6.6,10.8,8.8,16.7,21.5,59-33.5,116.3-93.3,97.3-44-14-62.9-65.5-42.5-106l-6,4.5c-5.8,5-10.4,13.3-18.6,14.4-22.1,3-50.2-2.1-72.9.1-6.7-.8-13.5-8.1-14.4-14.6s-.9-27.8,0-34.8c.8-6.2,9.2-15.6,15.4-15.6h507.5v-237.5ZM1580,441l-54.8-92.7c-1.9-3.5-10.1-10.3-13.7-10.3h-91.5v103h160ZM1026.8,597.3c-44.1,4.3-31.9,75.6,13,62,35.7-10.8,24.9-65.7-13-62Z"/>
  <path d="M372.7,230.2l326.3.2c7,2.8,12.9,7.9,13,16v273.1c-.5,9.2-8.5,16-17.5,16.5h-318.1c-8.9-.5-17.1-7.3-17.5-16.5V247.5c.2-8.7,5.9-14.6,13.8-17.2ZM488,273h-86v220h266v-220h-88v76.5c0,4-6.8,7.9-10.6,8.4-14.5,2-52.8,1.5-68,.1-3-.3-5.9-.8-8.4-2.6s-5-5.9-5-7v-75.5ZM547,273h-23v50h23v-50Z"/>
  <path d="M952.7,230.2l326.3.2c7.9,3,13.2,9.2,13,18v271.1c-.5,9.2-8.5,16-17.5,16.5h-318.1c-8.9-.5-17.1-7.3-17.5-16.5l.7-277.4c1.6-6.1,7.5-9.8,13-12ZM1071,273h-88v220h266v-220h-86v75.5c0,1.1-3.7,6-5,7-2.5,1.7-5.5,2.3-8.4,2.6-15.2,1.3-53.4,1.8-68-.1s-10.6-4.4-10.6-8.4v-76.5ZM1127,273h-23v50h23v-50Z"/>
  <path d="M732,138c4.5,6.6,13.9,12.1,17.2,19.3,9.7,21.3-14.5,40.8-33.2,27.2-15.7-18.1-37.4-34.3-52.5-52.5-11.1-13.4-9.9-23.2,1-36,15.5-18.2,36.5-34.4,52.5-52.5,11.5-9.6,31.4-1,33.8,13.3s-7.2,22.9-17.5,32c-.7.6-1.9,0-1.3,2.3h190c-4.5-6.6-13.9-12.1-17.2-19.3-9.7-21.3,14.5-40.8,33.2-27.2,15.7,18.1,37.4,34.3,52.5,52.5,11.1,13.4,9.9,23.2-1,36-15.5,18.2-36.5,34.4-52.5,52.5-11.5,9.6-31.4,1-33.8-13.3s7.2-22.9,17.5-32c.7-.6,1.9,0,1.3-2.3h-190Z"/>
  <path d="M132.8,555.3c59.2-3.7,99.6,60.5,69,112-31,52.3-108.9,46.9-132.7-8.9-19.9-46.8,13.3-99.9,63.7-103.1ZM134.8,597.3c-46.5,4.9-31.5,77.3,13.5,61.5,34.7-12.2,23-65.4-13.5-61.5Z"/>
  <path d="M1508.8,555.3c53.3-3.4,93.5,50.8,74,101-21.1,54.2-95.4,64.5-129.6,17.1-34.5-47.9-2.9-114.3,55.6-118ZM1509.8,597.3c-46.1,4.4-29.8,79.5,15.9,60.9s19.8-64.3-15.9-60.9Z"/>
</svg>