<?xml version="1.0" encoding="UTF-8"?>
<svg id="cross_dock_ops_image" xmlns="http://www.w3.org/2000/svg" version="1.1" viewBox="0 0 942 711">
  <path d="M674,310.5c1.1-7.1,8.5-13.5,15.6-14.4,38.6,1.7,79.6-2.5,118-.1,19.8,1.2,35.4,8.9,48.4,23.6,23.1,39.9,53.8,81.7,74.2,122.8,2.4,4.7,4.3,9.4,5.4,14.6l.5,143.6c-2.6,12.3-13.3,14.8-24.5,13.5s-14.4-16.3-19.3-26.7c-31.9-67.4-130.7-67.3-160.4,2-3.4,8-4.4,21.1-14,24-2.5.7-7.7,1.4-10.3,1.7-59.2,4.6-125.5-2.6-184.9-1-32-2.6-69.7,3.6-101,0-12.1-1.4-21.9-21-31.5-28,2.5,5.7,6.6,10.8,8.8,16.7,21.5,59-33.5,116.3-93.3,97.3s-62.9-65.5-42.5-106l-6,4.5c-5.8,5-10.4,13.3-18.6,14.4-22.1,3-50.2-2.1-72.9.1-6.7-.8-13.5-8.1-14.4-14.6s-.9-27.8,0-34.8,9.2-15.6,15.4-15.6h507.5v-237.5ZM879,441l-54.8-92.7c-1.9-3.5-10.1-10.3-13.7-10.3h-91.5v103h160ZM325.8,597.3c-44.1,4.3-31.9,75.6,13,62,35.7-10.8,24.9-65.7-13-62Z"/>
  <path d="M251.7,230.2l326.3.2c7.9,3,13.2,9.2,13,18v271.1c-.5,9.2-8.5,16-17.5,16.5H255.5c-8.9-.5-17.1-7.3-17.5-16.5l.7-277.4c1.6-6.1,7.5-9.8,13-12ZM370,273h-88v220h266v-220h-86v75.5c0,1.1-3.7,6-5,7-2.5,1.7-5.5,2.3-8.4,2.6-15.2,1.3-53.4,1.8-68-.1s-10.6-4.4-10.6-8.4v-76.5ZM426,273h-23v50h23v-50Z"/>
  <path d="M807.8,555.3c53.3-3.4,93.5,50.8,74,101-21.1,54.2-95.4,64.5-129.6,17.1s-2.9-114.3,55.6-118ZM808.8,597.3c-46.1,4.4-29.8,79.5,15.9,60.9,34-13.8,19.8-64.3-15.9-60.9Z"/>
  <path d="M118,411H19.5c-2.2,0-9.1-4.3-10.9-6.1-8.5-8.6-8.2-30.4,2.4-37.3s8-3.5,8.5-3.5h98.5c-5.3-7.8-16.5-13.4-18.7-22.8-4.9-20.1,15.1-36.6,32.8-24.8,16,18.1,37,34.3,52.5,52.5,10.9,12.9,12.3,22.4,1,36-15.1,18.2-36.8,34.4-52.5,52.5-17.2,13.1-40.2-4.3-33.5-24.5s13.2-14.4,18.5-22Z"/>
</svg>